<mxfile host="app.diagrams.net" agent="Mozilla/5.0 (Windows NT 10.0; Win64; x64) AppleWebKit/537.36 (KHTML, like Gecko) Chrome/129.0.0.0 Safari/537.36" version="24.7.17">
  <diagram name="Página-1" id="VW7Ytd7cj07S4oblSxh-">
    <mxGraphModel dx="1195" dy="1791" grid="1" gridSize="10" guides="1" tooltips="1" connect="1" arrows="1" fold="1" page="1" pageScale="1" pageWidth="827" pageHeight="1169" math="0" shadow="0">
      <root>
        <mxCell id="0" />
        <mxCell id="1" parent="0" />
        <mxCell id="S0QI37z1_YAIbUaaQ4wB-6" style="edgeStyle=orthogonalEdgeStyle;rounded=0;orthogonalLoop=1;jettySize=auto;html=1;exitX=0.5;exitY=1;exitDx=0;exitDy=0;entryX=0.5;entryY=0;entryDx=0;entryDy=0;" edge="1" parent="1" source="S0QI37z1_YAIbUaaQ4wB-1" target="S0QI37z1_YAIbUaaQ4wB-3">
          <mxGeometry relative="1" as="geometry" />
        </mxCell>
        <mxCell id="S0QI37z1_YAIbUaaQ4wB-8" value="(1,1)" style="edgeLabel;html=1;align=center;verticalAlign=middle;resizable=0;points=[];" vertex="1" connectable="0" parent="S0QI37z1_YAIbUaaQ4wB-6">
          <mxGeometry x="-0.65" y="2" relative="1" as="geometry">
            <mxPoint as="offset" />
          </mxGeometry>
        </mxCell>
        <mxCell id="S0QI37z1_YAIbUaaQ4wB-1" value="usuário" style="rounded=0;whiteSpace=wrap;html=1;" vertex="1" parent="1">
          <mxGeometry x="294" y="60" width="120" height="60" as="geometry" />
        </mxCell>
        <mxCell id="S0QI37z1_YAIbUaaQ4wB-2" value="notas" style="rounded=0;whiteSpace=wrap;html=1;" vertex="1" parent="1">
          <mxGeometry x="340" y="400" width="120" height="60" as="geometry" />
        </mxCell>
        <mxCell id="S0QI37z1_YAIbUaaQ4wB-3" value="possui" style="rhombus;whiteSpace=wrap;html=1;" vertex="1" parent="1">
          <mxGeometry x="260" y="210" width="220" height="80" as="geometry" />
        </mxCell>
        <mxCell id="S0QI37z1_YAIbUaaQ4wB-7" style="edgeStyle=orthogonalEdgeStyle;rounded=0;orthogonalLoop=1;jettySize=auto;html=1;exitX=0.5;exitY=1;exitDx=0;exitDy=0;entryX=0.442;entryY=0.05;entryDx=0;entryDy=0;entryPerimeter=0;" edge="1" parent="1" source="S0QI37z1_YAIbUaaQ4wB-3" target="S0QI37z1_YAIbUaaQ4wB-2">
          <mxGeometry relative="1" as="geometry" />
        </mxCell>
        <mxCell id="S0QI37z1_YAIbUaaQ4wB-10" value="(0,n)" style="edgeLabel;html=1;align=center;verticalAlign=middle;resizable=0;points=[];" vertex="1" connectable="0" parent="S0QI37z1_YAIbUaaQ4wB-7">
          <mxGeometry x="0.635" y="4" relative="1" as="geometry">
            <mxPoint as="offset" />
          </mxGeometry>
        </mxCell>
        <mxCell id="S0QI37z1_YAIbUaaQ4wB-11" value="" style="shape=waypoint;sketch=0;fillStyle=solid;size=6;pointerEvents=1;points=[];fillColor=none;resizable=0;rotatable=0;perimeter=centerPerimeter;snapToPoint=1;" vertex="1" parent="1">
          <mxGeometry x="360" y="20" width="20" height="20" as="geometry" />
        </mxCell>
        <mxCell id="S0QI37z1_YAIbUaaQ4wB-13" value="" style="verticalLabelPosition=bottom;verticalAlign=top;html=1;shape=mxgraph.flowchart.on-page_reference;" vertex="1" parent="1">
          <mxGeometry x="360" y="10" width="10" height="10" as="geometry" />
        </mxCell>
        <mxCell id="S0QI37z1_YAIbUaaQ4wB-27" style="edgeStyle=orthogonalEdgeStyle;rounded=0;orthogonalLoop=1;jettySize=auto;html=1;entryX=0.619;entryY=0.064;entryDx=0;entryDy=0;entryPerimeter=0;" edge="1" parent="1" source="S0QI37z1_YAIbUaaQ4wB-11" target="S0QI37z1_YAIbUaaQ4wB-1">
          <mxGeometry relative="1" as="geometry" />
        </mxCell>
        <mxCell id="S0QI37z1_YAIbUaaQ4wB-28" style="edgeStyle=orthogonalEdgeStyle;rounded=0;orthogonalLoop=1;jettySize=auto;html=1;entryX=0.397;entryY=0.008;entryDx=0;entryDy=0;entryPerimeter=0;" edge="1" parent="1" source="S0QI37z1_YAIbUaaQ4wB-13" target="S0QI37z1_YAIbUaaQ4wB-1">
          <mxGeometry relative="1" as="geometry">
            <Array as="points">
              <mxPoint x="350" y="15" />
              <mxPoint x="350" y="30" />
              <mxPoint x="342" y="30" />
            </Array>
          </mxGeometry>
        </mxCell>
        <mxCell id="S0QI37z1_YAIbUaaQ4wB-29" value="user_id" style="text;html=1;align=center;verticalAlign=middle;resizable=0;points=[];autosize=1;strokeColor=none;fillColor=none;" vertex="1" parent="1">
          <mxGeometry x="360" y="-2" width="60" height="30" as="geometry" />
        </mxCell>
        <mxCell id="S0QI37z1_YAIbUaaQ4wB-30" value="nome_usuario" style="text;html=1;align=center;verticalAlign=middle;resizable=0;points=[];autosize=1;strokeColor=none;fillColor=none;" vertex="1" parent="1">
          <mxGeometry x="364" y="15" width="100" height="30" as="geometry" />
        </mxCell>
        <mxCell id="S0QI37z1_YAIbUaaQ4wB-31" value="" style="shape=waypoint;sketch=0;fillStyle=solid;size=6;pointerEvents=1;points=[];fillColor=none;resizable=0;rotatable=0;perimeter=centerPerimeter;snapToPoint=1;" vertex="1" parent="1">
          <mxGeometry x="480" y="380" width="20" height="20" as="geometry" />
        </mxCell>
        <mxCell id="S0QI37z1_YAIbUaaQ4wB-40" style="edgeStyle=orthogonalEdgeStyle;rounded=0;orthogonalLoop=1;jettySize=auto;html=1;exitX=0;exitY=0.5;exitDx=0;exitDy=0;exitPerimeter=0;entryX=1;entryY=0.5;entryDx=0;entryDy=0;" edge="1" parent="1" source="S0QI37z1_YAIbUaaQ4wB-32" target="S0QI37z1_YAIbUaaQ4wB-2">
          <mxGeometry relative="1" as="geometry" />
        </mxCell>
        <mxCell id="S0QI37z1_YAIbUaaQ4wB-32" value="" style="verticalLabelPosition=bottom;verticalAlign=top;html=1;shape=mxgraph.flowchart.on-page_reference;" vertex="1" parent="1">
          <mxGeometry x="485" y="425" width="10" height="10" as="geometry" />
        </mxCell>
        <mxCell id="S0QI37z1_YAIbUaaQ4wB-33" value="user_id" style="text;html=1;align=center;verticalAlign=middle;resizable=0;points=[];autosize=1;strokeColor=none;fillColor=none;" vertex="1" parent="1">
          <mxGeometry x="490" y="375" width="60" height="30" as="geometry" />
        </mxCell>
        <mxCell id="S0QI37z1_YAIbUaaQ4wB-36" style="edgeStyle=orthogonalEdgeStyle;rounded=0;orthogonalLoop=1;jettySize=auto;html=1;entryX=0.924;entryY=0.011;entryDx=0;entryDy=0;entryPerimeter=0;" edge="1" parent="1" source="S0QI37z1_YAIbUaaQ4wB-31" target="S0QI37z1_YAIbUaaQ4wB-2">
          <mxGeometry relative="1" as="geometry" />
        </mxCell>
        <mxCell id="S0QI37z1_YAIbUaaQ4wB-37" value="" style="shape=waypoint;sketch=0;fillStyle=solid;size=6;pointerEvents=1;points=[];fillColor=none;resizable=0;rotatable=0;perimeter=centerPerimeter;snapToPoint=1;" vertex="1" parent="1">
          <mxGeometry x="480" y="400" width="20" height="20" as="geometry" />
        </mxCell>
        <mxCell id="S0QI37z1_YAIbUaaQ4wB-38" value="nota_id" style="text;html=1;align=center;verticalAlign=middle;resizable=0;points=[];autosize=1;strokeColor=none;fillColor=none;" vertex="1" parent="1">
          <mxGeometry x="490" y="395" width="60" height="30" as="geometry" />
        </mxCell>
        <mxCell id="S0QI37z1_YAIbUaaQ4wB-56" style="edgeStyle=orthogonalEdgeStyle;rounded=0;orthogonalLoop=1;jettySize=auto;html=1;exitX=0;exitY=0.5;exitDx=0;exitDy=0;exitPerimeter=0;entryX=1;entryY=0.75;entryDx=0;entryDy=0;" edge="1" parent="1" source="S0QI37z1_YAIbUaaQ4wB-41" target="S0QI37z1_YAIbUaaQ4wB-2">
          <mxGeometry relative="1" as="geometry" />
        </mxCell>
        <mxCell id="S0QI37z1_YAIbUaaQ4wB-41" value="" style="verticalLabelPosition=bottom;verticalAlign=top;html=1;shape=mxgraph.flowchart.on-page_reference;" vertex="1" parent="1">
          <mxGeometry x="485" y="445" width="10" height="10" as="geometry" />
        </mxCell>
        <mxCell id="S0QI37z1_YAIbUaaQ4wB-44" value="titulo" style="text;html=1;align=center;verticalAlign=middle;resizable=0;points=[];autosize=1;strokeColor=none;fillColor=none;" vertex="1" parent="1">
          <mxGeometry x="490" y="415" width="50" height="30" as="geometry" />
        </mxCell>
        <mxCell id="S0QI37z1_YAIbUaaQ4wB-46" value="categoria" style="text;html=1;align=center;verticalAlign=middle;resizable=0;points=[];autosize=1;strokeColor=none;fillColor=none;" vertex="1" parent="1">
          <mxGeometry x="490" y="435" width="70" height="30" as="geometry" />
        </mxCell>
        <mxCell id="S0QI37z1_YAIbUaaQ4wB-48" style="edgeStyle=orthogonalEdgeStyle;rounded=0;orthogonalLoop=1;jettySize=auto;html=1;entryX=1;entryY=0.136;entryDx=0;entryDy=0;entryPerimeter=0;" edge="1" parent="1" source="S0QI37z1_YAIbUaaQ4wB-38" target="S0QI37z1_YAIbUaaQ4wB-2">
          <mxGeometry relative="1" as="geometry" />
        </mxCell>
        <mxCell id="S0QI37z1_YAIbUaaQ4wB-60" style="edgeStyle=orthogonalEdgeStyle;rounded=0;orthogonalLoop=1;jettySize=auto;html=1;entryX=0.819;entryY=0.997;entryDx=0;entryDy=0;entryPerimeter=0;" edge="1" parent="1" source="S0QI37z1_YAIbUaaQ4wB-58" target="S0QI37z1_YAIbUaaQ4wB-2">
          <mxGeometry relative="1" as="geometry">
            <mxPoint x="440" y="470" as="targetPoint" />
          </mxGeometry>
        </mxCell>
        <mxCell id="S0QI37z1_YAIbUaaQ4wB-58" value="conteudo" style="text;html=1;align=center;verticalAlign=middle;resizable=0;points=[];autosize=1;strokeColor=none;fillColor=none;" vertex="1" parent="1">
          <mxGeometry x="490" y="455" width="70" height="30" as="geometry" />
        </mxCell>
        <mxCell id="S0QI37z1_YAIbUaaQ4wB-59" value="" style="verticalLabelPosition=bottom;verticalAlign=top;html=1;shape=mxgraph.flowchart.on-page_reference;" vertex="1" parent="1">
          <mxGeometry x="485" y="465" width="10" height="10" as="geometry" />
        </mxCell>
      </root>
    </mxGraphModel>
  </diagram>
</mxfile>
